<?xml version="1.0" standalone="no"?>
<!DOCTYPE svg PUBLIC "-//W3C//DTD SVG 20010904//EN"
 "http://www.w3.org/TR/2001/REC-SVG-20010904/DTD/svg10.dtd">
<svg version="1.0" xmlns="http://www.w3.org/2000/svg"
 width="1280.000000pt" height="965.000000pt" viewBox="0 0 1280.000000 965.000000"
 preserveAspectRatio="xMidYMid meet">
<g transform="translate(0.000000,965.000000) scale(0.100000,-0.100000)"
fill="#000000" stroke="none">
<path d="M0 4825 l0 -4825 6400 0 6400 0 0 4825 0 4825 -6400 0 -6400 0 0
-4825z m11346 3930 c4 -11 -558 -582 -1838 -1868 -2966 -2979 -2725 -2740
-2793 -2775 -208 -106 -479 -87 -652 46 -44 34 -4176 4205 -4502 4545 -24 25
-40 50 -37 56 5 8 1374 11 4912 11 4369 0 4905 -2 4910 -15z m-8826 -2270
c885 -896 1610 -1635 1610 -1641 0 -10 -3168 -3256 -3213 -3292 -9 -8 -21 -11
-27 -7 -11 7 -15 6530 -4 6560 4 9 10 15 15 13 4 -2 733 -736 1619 -1633z
m9397 -1685 c2 -2056 -1 -3240 -7 -3250 -8 -12 -25 0 -88 65 -808 819 -3122
3200 -3120 3210 5 24 3182 3214 3198 3212 13 -2 15 -370 17 -3237z m-6807
-936 c190 -190 379 -372 420 -403 263 -202 590 -301 948 -288 232 8 434 59
625 156 182 93 239 140 608 513 211 213 352 349 362 346 21 -5 3218 -3279
3214 -3292 -3 -8 -1373 -11 -4883 -11 -4437 0 -4879 1 -4879 16 0 17 3213
3309 3230 3309 6 0 165 -156 355 -346z"/>
</g>
</svg>
